<?xml version="1.0" encoding="utf-8"?>
<!-- Generator: Adobe Illustrator 19.1.0, SVG Export Plug-In . SVG Version: 6.00 Build 0)  -->
<svg xmlns="http://www.w3.org/2000/svg" xmlns:xlink="http://www.w3.org/1999/xlink" version="1.1" id="Layer_1" x="0px" y="0px" viewBox="0 0 64 64" enable-background="new 0 0 64 64" xml:space="preserve" width="512px" height="512px">
<path id="Love-heart" d="M63.26577,49.2760696c-0.0854988-0.5449982-0.5966988-0.9140968-1.142601-0.8339996  c-0.5453987,0.0848999-0.9188995,0.5967026-0.8339996,1.142601l0.3540001,2.2685013l-9.4042969-7.171402  c1.2931976-1.6058998,2.4165001-3.2672997,3.2456093-4.9554977c5.1943893-9.8682022,5.1157875-19.887701-0.1958122-24.9336014  c-2.8172989-2.6778002-6.9012985-3.8818998-10.9227982-3.2178001c-3.9458008,0.6493998-7.3599014,3.0107002-9.7607994,6.7129002  c-2.3999023-3.7012005-5.8134003-6.0635004-9.759201-6.7129002c-4.0175991-0.6611004-8.1049995,0.5390005-10.9223871,3.2178001  c-0.1477118,0.1401997-0.2761116,0.2982998-0.4158115,0.4460001l-3.2917004-2.5493002L9.5264835,8.2594709  C9.4410725,7.7125711,8.9278717,7.3424711,8.3843718,7.4244714C7.8384838,7.5094709,7.464972,8.0211716,7.5499721,8.5660715  l0.3642001,2.3406L6.5992723,9.8883715c-0.0597887-0.0462008-0.1292-0.0655003-0.1950002-0.0960999L5.7491722,5.5914712  C5.663672,5.0465713,5.1524835,4.672471,4.6065722,4.7574711c-0.5454001,0.085-0.9189,0.5967002-0.8339999,1.1426001  l0.5689113,3.6455002l-3.4956114,0.5448999c-0.5453886,0.085-0.919,0.5966997-0.8339999,1.1426001  c0.0771,0.4931993,0.5028999,0.8457003,0.9868,0.8457003c0.0513,0,0.1035-0.0039005,0.1558113-0.0117006l4.1741886-0.651  c0.0183001,0.0165005,0.0272002,0.0390005,0.0470004,0.0543003l1.2572999,0.9735994l-2.0117002,0.3135004  c-0.5454998,0.085-0.9189999,0.5966997-0.8339999,1.1426001c0.0771,0.4931002,0.5028999,0.8457003,0.9868,0.8457003  c0.0513,0,0.1034999-0.0039005,0.1557999-0.0117006l3.8792996-0.6049995l3.4476004,2.6692991  c-3.5847998,5.4237003-3.1085997,14.2294006,1.4577112,22.9025002c4.1855888,8.5233994,15.6293888,16.405201,20.3554897,19.3983994  c0.1635971,0.1035004,0.3490982,0.1553001,0.535099,0.1553001c0.1861,0,0.3716011-0.0517998,0.5351982-0.1553001  c3.4860001-2.2069969,10.6206017-7.0775986,15.8031006-12.8905983l9.4967003,7.2416992l-2.0775871,0.3227005  c-0.545414,0.0849991-0.9189987,0.5966988-0.8345146,1.1416016c0.0771027,0.4941978,0.5024033,0.8466988,0.9868011,0.8466988  c0.0513,0,0.1030006-0.0038986,0.1553001-0.0116997l4.4838982-0.6973c0.2622032-0.0410004,0.4970016-0.1845016,0.653801-0.3983994  c0.1562004-0.2139015,0.221199-0.4815025,0.1805992-0.7442017L63.26577,49.2760696z M34.605072,57.0679703  C29.7462711,53.94207,19.3238716,46.5865707,15.4966717,38.7945709c-4.7728996-9.0664005-4.8514996-18.1299-0.1957998-22.5527  c1.9146109-1.8193998,4.6412001-2.8407993,7.4146109-2.8407993c0.6020012,0,1.2064896,0.0478001,1.8056889,0.1463995  c3.8255997,0.6309004,7.0926991,3.1817007,9.1991997,7.1845999c0.172802,0.3281002,0.5131989,0.5342007,0.8847008,0.5342007  c0.3710976,0,0.711998-0.2061005,0.8848-0.5342007c2.1068993-4.0028992,5.3745003-6.5536995,9.2006989-7.1845999  c3.3563995-0.5507002,6.8895988,0.4805002,9.2201996,2.6943998c4.6553001,4.4228001,4.5767136,13.4862995-0.2084999,22.5781021  c-0.7755013,1.5788994-1.8326988,3.1377983-3.051899,4.6503983l-8.0808868-6.1621017  c-0.4404144-0.3368988-1.0674133-0.2489967-1.4019127,0.1885033c-0.3344002,0.4393997-0.25,1.0663986,0.1889992,1.4012985  l7.9945984,6.0965004C44.6129723,50.2769699,38.1404839,54.7940712,34.605072,57.0679703z" fill="#333333"/>
<g>
</g>
<g>
</g>
<g>
</g>
<g>
</g>
<g>
</g>
<g>
</g>
<g>
</g>
<g>
</g>
<g>
</g>
<g>
</g>
<g>
</g>
<g>
</g>
<g>
</g>
<g>
</g>
<g>
</g>
</svg>
