<?xml version="1.0" encoding="utf-8"?>
<!-- Generator: Adobe Illustrator 19.1.0, SVG Export Plug-In . SVG Version: 6.00 Build 0)  -->
<svg xmlns="http://www.w3.org/2000/svg" xmlns:xlink="http://www.w3.org/1999/xlink" version="1.1" id="Layer_1" x="0px" y="0px" viewBox="0 0 64 64" enable-background="new 0 0 64 64" xml:space="preserve" width="512px" height="512px">
<g id="Wedding-cake">
	<path d="M63,59.5537796h-5V34.4473763c0-0.5527-0.4478035-1-1-1h-8V18.4473782c0-0.5527-0.4478035-1-1-1H16   c-0.5522003,0-1,0.4473-1,1v14.9999981H7c-0.5521998,0-1,0.4473-1,1v25.1064034H1c-0.5522,0-1,0.4473-1,1c0,0.5527992,0.4478,1,1,1   h62c0.5521965,0,1-0.4472008,1-1C64,60.0010796,63.5521965,59.5537796,63,59.5537796z M8,45.9848785   c1.7261-0.8335991,3.2075005-0.7693024,4.6484003,0.2340012c3.3608999,2.1132965,5.891099,1.1659966,7.4369993-0.0225029   c1.828701-1.1054001,3.4258003-1.107399,4.9952011-0.0194969c1.488699,1.0995979,2.8143997,1.5126991,3.9667988,1.5126991   c1.5272999,0,2.75-0.7266006,3.6434994-1.5469017c1.6416016-1.205101,3.2616997-1.1865005,5.0614967,0.0321999   c3.2437019,2.4081993,5.778801,1.3027992,7.2940025-0.0155983c1.6347008-1.2803001,3.3060989-1.2666016,5.2168007,0.0136986   C52.089798,47.5396767,54.0465965,47.8169785,56,47.0369797v12.4103966H8V45.9848785z M46,20.0723782   c0,1.0771008-0.8755035,1.9531002-1.9522018,1.9531002c-1.0765991,0-1.9526024-0.8759995-1.9526024-1.9531002   c0-0.1611004,0.0200005-0.3213005,0.0586014-0.4755993h3.7876015C45.9799995,19.7510777,46,19.9112778,46,20.0723782z    M18.5347004,19.5967789H22.3223c0.0384998,0.1542988,0.0585995,0.3144989,0.0585995,0.4755993   c0,1.0771008-0.8754997,1.9531002-1.9521999,1.9531002s-1.9525986-0.8759995-1.9525986-1.9531002   C18.4761009,19.9112778,18.4960995,19.7510777,18.5347004,19.5967789z M24.4395008,19.5967789h3.7874985   c0.0386009,0.1542988,0.0586014,0.3144989,0.0586014,0.4755993c0,1.0771008-0.8754005,1.9531002-1.9521008,1.9531002   s-1.9526005-0.8759995-1.9526005-1.9531002C24.3808994,19.9112778,24.4008999,19.7510777,24.4395008,19.5967789z    M30.3442001,19.5967789h3.7876015c0.0385971,0.1542988,0.0585976,0.3144989,0.0585976,0.4755993   c0,1.0771008-0.8754997,1.9531002-1.9520988,1.9531002c-1.0767002,0-1.9526997-0.8759995-1.9526997-1.9531002   C30.2856007,19.9112778,30.3057003,19.7510777,30.3442001,19.5967789z M36.2490005,19.5967789h3.7875977   c0.0386009,0.1542988,0.0585976,0.3144989,0.0585976,0.4755993c0,1.0771008-0.8754997,1.9531002-1.9520988,1.9531002   c-1.0766983,0-1.9526978-0.8759995-1.9526978-1.9531002C36.1903992,19.9112778,36.2103958,19.7510777,36.2490005,19.5967789z    M17,22.0013771c0.6788006,1.201601,1.9528999,2.0241013,3.4286995,2.0241013c1.1792011,0,2.2273998-0.5298004,2.9521999-1.3518009   c0.7248001,0.8220005,1.7730999,1.3518009,2.9526005,1.3518009c1.1791992,0,2.2273998-0.5298004,2.9521008-1.3518009   c0.7248993,0.8220005,1.7731991,1.3518009,2.9526997,1.3518009c1.1791992,0,2.2273979-0.5298004,2.9520988-1.3518009   c0.7248993,0.8220005,1.7731972,1.3518009,2.9526978,1.3518009c1.1791992,0,2.2274017-0.5298004,2.9520988-1.3518009   c0.7249031,0.8220005,1.773201,1.3518009,2.9526024,1.3518009c1.179203,0,2.2275009-0.5298004,2.9522018-1.3516998v10.7735977H17   V22.0013771z M16,35.4473763h32h8v9.3697014c-1.5917015,0.9449997-3.0491028,0.8699989-4.5806046-0.2750015   c-2.6610985-1.7860985-5.2915001-1.7704964-7.6459999,0.0752029c-1.5155983,1.3194008-3.0057983,1.3046989-4.8631973-0.0722008   c-2.5455017-1.7276001-5.1240997-1.719799-7.457098,0.0262985c-0.028801,0.0214996-0.0566006,0.0449028-0.0830002,0.0694008   c-1.528801,1.4267006-3.1025009,1.4043007-5.1254997-0.0909004c-2.2431011-1.5536995-4.7495003-1.5634003-7.2504997-0.030201   c-0.0321999,0.0205002-0.0634003,0.0420036-0.0932007,0.0644035c-1.5492992,1.2118988-3.1968002,1.1933975-5.1484995-0.0321999   C11.9889002,43.3228798,10.0581999,43.0945778,8,43.8272781v-8.3799019H16z" fill="#333333"/>
	<path d="M31.2514992,16.292078c0.1635017,0.1035004,0.3491001,0.1553001,0.5351009,0.1553001   c0.1861,0,0.3715992-0.0517998,0.5352001-0.1553001c1.6015015-1.0145998,4.4584961-3.0614996,5.5809975-5.3495998   c1.5401001-2.9228001,1.4628983-5.8301001-0.195797-7.4033003c-0.9038048-0.8594-2.2050018-1.2480998-3.4873009-1.0360999   c-0.9301987,0.1533-1.7626991,0.6025-2.4330997,1.2988c-0.6709003-0.6963-1.5039005-1.1454999-2.4340992-1.2988   c-1.2797012-0.2119999-2.5820007,0.1766999-3.4853001,1.0351c-1.6602001,1.5742002-1.7373009,4.4815001-0.210001,7.3789001   C26.7924995,13.2305784,29.6494007,15.2774782,31.2514992,16.292078z M27.2441006,4.988378   c0.3647995-0.3467002,0.8886986-0.5409999,1.4263-0.5409999c0.1187,0,0.2388,0.0098,0.357399,0.0292997   c0.5430012,0.0889001,1.3085995,0.4208999,1.8740997,1.4951c0.3457012,0.6563001,1.4237995,0.6563001,1.7694988,0   c0.5649033-1.0742002,1.3306007-1.4061999,1.8735008-1.4951c0.6529007-0.1083999,1.3389015,0.0879002,1.7846985,0.5127001   c0.9614029,0.9120998,0.8804016,2.9766002-0.2089996,5.0468998c-0.6112976,1.2451-2.2113991,2.7968006-4.3339977,4.2177   c-2.1229992-1.4208994-3.7236004-2.9745998-4.3467007-4.2431002C26.3628006,7.9659781,26.2817001,5.9014778,27.2441006,4.988378z" fill="#333333"/>
</g>
<g>
</g>
<g>
</g>
<g>
</g>
<g>
</g>
<g>
</g>
<g>
</g>
<g>
</g>
<g>
</g>
<g>
</g>
<g>
</g>
<g>
</g>
<g>
</g>
<g>
</g>
<g>
</g>
<g>
</g>
</svg>
